<svg xmlns="http://www.w3.org/2000/svg" width="431" height="535"><path d="M79 532c-4 0-5 0-3-1 2 0 1-1-1-1-6 0-21-5-29-9a77 77 0 01-39-49c-1-3-1-5-2-4v-17-4a12447 12447 0 0031-332c1-4 8-11 13-13l33-1h28l1-2 1-9c8-44 43-80 88-88l5-2 5-1c8-1 26 0 23 1-1 1 0 1 4 2 12 1 32 9 44 18 15 10 29 28 37 44 3 7 7 21 8 29 1 9-2 8 30 8l33 1c4 2 10 6 12 11l16 170a8057 8057 0 0016 185c-1-1-1 1-2 4-2 8-8 21-14 28a86 86 0 01-54 30c-2 0-3 1-1 1 1 1-1 1-6 2l-277-1zm286-41c9-3 14-7 20-13s9-12 9-20l-29-315c0-3-1-3-18-3s-19 0-20 2l-1 22c0 20 0 21-2 25-8 13-27 12-34-2-1-4-2-7-2-24l-1-22-69-1c-60 0-67 0-68 2l-1 21-1 24c-7 14-27 15-35 1-2-4-2-6-3-26v-21l-18-1-19 1-29 317c0 8 3 14 9 20 7 8 16 12 27 14l142 1h137zm-78-391c1-3-2-15-7-24-3-6-6-10-12-16-9-9-16-14-26-17a69 69 0 00-72 17c-9 9-15 19-18 31-3 11-10 10 67 10l68-1z" fill="#323232"/></svg>