<svg xmlns="http://www.w3.org/2000/svg" width="127.333" height="78.614"><defs><clipPath clipPathUnits="userSpaceOnUse" id="a"><path d="M0 58.961h95.5V0H0z"/></clipPath></defs><g clip-path="url(#a)" transform="matrix(1.33333 0 0 -1.33333 0 78.614)"><path d="M92.041 52.043H3.459A3.47 3.47 0 000 55.502a3.47 3.47 0 003.459 3.459h88.582A3.47 3.47 0 0095.5 55.5a3.47 3.47 0 00-3.459-3.458M55.076 26.021H3.459A3.47 3.47 0 000 29.481a3.47 3.47 0 003.459 3.458h51.617a3.47 3.47 0 003.459-3.459 3.47 3.47 0 00-3.459-3.459M74.208 0H3.458A3.47 3.47 0 000 3.459a3.47 3.47 0 003.459 3.459h70.749a3.47 3.47 0 003.459-3.459A3.47 3.47 0 0074.207 0" fill="#231f20"/></g></svg>